<svg xmlns="http://www.w3.org/2000/svg" xmlns:xlink="http://www.w3.org/1999/xlink" width="45" zoomAndPan="magnify" viewBox="0 0 33.75 52.499999" height="70" preserveAspectRatio="xMidYMid meet" version="1.0"><defs><clipPath id="86de0aeb9c"><path d="M 0.0351562 0.171875 L 33.46875 0.171875 L 33.46875 52.003906 L 0.0351562 52.003906 Z M 0.0351562 0.171875 " clip-rule="nonzero"/></clipPath><clipPath id="471986305a"><path d="M 3 6 L 31 6 L 31 52.003906 L 3 52.003906 Z M 3 6 " clip-rule="nonzero"/></clipPath><clipPath id="598289ceac"><path d="M 0.0351562 0.171875 L 33.46875 0.171875 L 33.46875 52.003906 L 0.0351562 52.003906 Z M 0.0351562 0.171875 " clip-rule="nonzero"/></clipPath></defs><g clip-path="url(#86de0aeb9c)"><path fill="#00151f" d="M 31.980469 29.199219 C 30.828125 27.085938 28.015625 25.089844 29.011719 22.390625 C 29.464844 21.167969 30.386719 20.171875 30.761719 18.914062 C 31.152344 17.609375 30.878906 16.265625 30.335938 15.046875 C 29.628906 13.449219 28.554688 12.023438 27.589844 10.578125 C 27.519531 10.472656 27.449219 10.367188 27.378906 10.257812 C 27.355469 10.125 27.332031 9.992188 27.308594 9.859375 C 26.632812 6.144531 24.710938 3 22.039062 1.238281 C 20.996094 0.546875 20.035156 0.207031 19.101562 0.199219 L 19.070312 0.199219 C 18.0625 0.199219 17.144531 0.636719 16.636719 1.328125 C 16.125 0.628906 15.1875 0.1875 14.171875 0.199219 C 13.238281 0.207031 12.277344 0.546875 11.234375 1.238281 C 8.558594 3 6.636719 6.144531 5.964844 9.859375 C 5.933594 10.023438 5.90625 10.1875 5.882812 10.347656 C 5.082031 11.535156 4.25 12.710938 3.539062 13.957031 C 2.839844 15.183594 2.242188 16.570312 2.351562 18.015625 C 2.449219 19.292969 3.148438 20.316406 3.765625 21.394531 C 4.472656 22.640625 4.753906 23.878906 4.101562 25.214844 C 3.53125 26.378906 2.589844 27.316406 1.859375 28.375 C 0.3125 30.621094 -0.28125 33.472656 0.238281 36.148438 C 0.691406 38.5 2.015625 40.617188 3.878906 42.082031 L 3.421875 48.417969 C 3.414062 48.515625 3.460938 48.609375 3.542969 48.660156 C 5.152344 49.691406 6.871094 50.523438 8.660156 51.152344 C 8.882812 51.230469 9.109375 51.304688 9.332031 51.375 C 11.730469 52.140625 14.242188 52.535156 16.757812 52.535156 C 17.476562 52.535156 18.195312 52.503906 18.910156 52.4375 C 20.84375 52.265625 22.75 51.851562 24.585938 51.214844 C 24.804688 51.140625 25.019531 51.0625 25.234375 50.980469 C 27.140625 50.265625 28.964844 49.308594 30.664062 48.128906 C 30.738281 48.074219 30.78125 47.988281 30.773438 47.894531 C 30.613281 45.679688 30.453125 43.460938 30.296875 41.242188 C 33.359375 38.128906 34.148438 33.179688 31.980469 29.199219 " fill-opacity="1" fill-rule="nonzero"/></g><g clip-path="url(#471986305a)"><path fill="#ffffff" d="M 7.441406 42.417969 C 7.027344 41.804688 6.539062 41.1875 6.4375 40.433594 C 6.335938 39.675781 6.648438 38.957031 7.015625 38.3125 C 7.449219 37.550781 8.046875 36.804688 8.140625 35.902344 C 8.152344 35.785156 8.152344 35.664062 8.140625 35.550781 C 8.117188 35.34375 8.058594 35.144531 7.964844 34.964844 C 7.761719 34.585938 7.410156 34.296875 6.949219 34.207031 C 6.785156 34.175781 6.785156 33.960938 6.960938 33.957031 C 7.386719 33.945312 7.730469 34.066406 8 34.28125 C 8.015625 34.125 8.03125 33.976562 8.039062 33.84375 C 8.066406 33.195312 8.097656 32.546875 8.128906 31.898438 C 8.160156 31.25 8.1875 30.597656 8.222656 29.953125 C 8.238281 29.640625 8.246094 29.324219 8.265625 29.011719 C 7.941406 29.171875 7.632812 29.347656 7.339844 29.542969 C 6.851562 29.867188 6.46875 30.21875 6.160156 30.621094 C 5.132812 31.945312 4.996094 33.8125 4.890625 35.3125 L 4.433594 41.65625 L 4.375 42.445312 L 3.953125 48.300781 C 5.414062 49.222656 6.96875 49.980469 8.578125 50.566406 C 8.292969 47.800781 9.109375 44.882812 7.441406 42.417969 Z M 7.390625 14.039062 C 7.398438 14.128906 7.574219 14.136719 7.585938 14.042969 C 7.554688 14.261719 8.078125 14.09375 7.808594 14.375 C 7.765625 14.421875 7.667969 14.445312 7.613281 14.492188 C 7.445312 14.640625 7.402344 14.859375 7.394531 15.074219 C 7.378906 15.648438 7.644531 16.265625 8.015625 16.691406 C 8.144531 16.835938 8.523438 16.675781 8.398438 16.476562 C 8.148438 16.074219 7.527344 15.101562 8.046875 14.707031 C 8.289062 14.523438 8.414062 14.484375 8.308594 14.128906 C 8.238281 13.878906 8.0625 13.625 7.773438 13.636719 C 7.539062 13.644531 7.363281 13.808594 7.390625 14.039062 Z M 6.964844 15.789062 C 6.816406 15.128906 6.773438 14.386719 6.886719 13.71875 C 7.039062 12.839844 7.863281 12.058594 8.582031 12.832031 C 8.578125 12.941406 8.578125 13.054688 8.578125 13.164062 C 8.578125 13.304688 8.578125 13.445312 8.582031 13.585938 C 8.585938 13.703125 8.59375 13.820312 8.597656 13.9375 C 8.601562 13.960938 8.601562 13.984375 8.601562 14.003906 C 8.609375 14.105469 8.617188 14.203125 8.625 14.304688 C 8.628906 14.367188 8.636719 14.429688 8.640625 14.492188 C 8.648438 14.546875 8.652344 14.601562 8.65625 14.652344 C 8.671875 14.796875 8.691406 14.933594 8.710938 15.074219 C 8.726562 15.1875 8.746094 15.304688 8.765625 15.417969 C 8.769531 15.449219 8.773438 15.480469 8.78125 15.511719 C 8.796875 15.601562 8.8125 15.691406 8.828125 15.78125 C 8.855469 15.914062 8.882812 16.046875 8.914062 16.175781 C 8.929688 16.238281 8.941406 16.296875 8.957031 16.355469 C 9.046875 16.726562 9.152344 17.089844 9.273438 17.441406 C 9.285156 17.488281 9.304688 17.535156 9.320312 17.582031 C 9.34375 17.652344 9.367188 17.71875 9.394531 17.785156 C 8.191406 18.074219 7.21875 16.914062 6.964844 15.789062 Z M 13.816406 25.480469 C 13.210938 26.472656 12.121094 27.304688 10.480469 28.027344 C 10.320312 28.097656 10.160156 28.167969 9.996094 28.234375 C 10.050781 29.746094 10.0625 31.253906 10.214844 32.761719 C 10.285156 33.476562 10.375 34.1875 10.480469 34.894531 C 12.679688 35.359375 14.878906 35.683594 17.144531 35.597656 C 18.417969 35.550781 19.691406 35.398438 20.9375 35.136719 C 21.714844 34.972656 22.472656 34.730469 23.230469 34.507812 C 23.316406 33.882812 23.390625 33.257812 23.453125 32.628906 C 23.597656 31.082031 23.605469 29.535156 23.664062 27.988281 C 22.074219 27.277344 21.007812 26.457031 20.414062 25.480469 C 20.394531 25.445312 20.378906 25.402344 20.378906 25.359375 C 20.359375 25.09375 20.351562 24.824219 20.351562 24.558594 C 20.351562 24.46875 20.355469 24.378906 20.355469 24.289062 C 20.355469 24.285156 20.355469 24.285156 20.355469 24.28125 C 20.359375 24.195312 20.359375 24.109375 20.363281 24.023438 C 20.363281 24.015625 20.363281 24.007812 20.367188 24 C 20.367188 23.933594 20.371094 23.863281 20.375 23.792969 C 20.378906 23.753906 20.378906 23.714844 20.382812 23.675781 C 20.386719 23.597656 20.394531 23.519531 20.402344 23.441406 C 20.40625 23.367188 20.414062 23.296875 20.421875 23.222656 C 20.421875 23.210938 20.425781 23.199219 20.425781 23.183594 C 20.433594 23.113281 20.441406 23.046875 20.449219 22.976562 C 20.453125 22.949219 20.457031 22.925781 20.460938 22.898438 C 20.46875 22.820312 20.480469 22.742188 20.492188 22.664062 C 20.5 22.597656 20.511719 22.53125 20.523438 22.464844 C 20.523438 22.441406 20.53125 22.417969 20.53125 22.398438 L 19.84375 22.839844 C 19.808594 22.859375 19.773438 22.878906 19.738281 22.898438 L 19.003906 23.246094 C 18.996094 23.25 18.980469 23.253906 18.96875 23.257812 C 18.945312 23.269531 18.921875 23.277344 18.898438 23.285156 C 18.859375 23.300781 18.816406 23.316406 18.777344 23.332031 C 18.558594 23.410156 18.335938 23.476562 18.109375 23.53125 C 18.0625 23.542969 18.015625 23.554688 17.96875 23.5625 C 17.917969 23.574219 17.871094 23.585938 17.820312 23.59375 C 17.570312 23.640625 17.316406 23.675781 17.0625 23.691406 C 17.019531 23.695312 16.976562 23.695312 16.933594 23.699219 C 16.886719 23.703125 16.835938 23.703125 16.785156 23.703125 C 16.734375 23.707031 16.6875 23.707031 16.636719 23.707031 C 16.574219 23.707031 16.511719 23.707031 16.449219 23.703125 C 16.410156 23.703125 16.367188 23.703125 16.328125 23.699219 C 16.292969 23.695312 16.261719 23.695312 16.226562 23.691406 C 16.203125 23.691406 16.179688 23.691406 16.15625 23.6875 C 16.121094 23.6875 16.089844 23.683594 16.054688 23.679688 C 16.003906 23.675781 15.957031 23.671875 15.90625 23.664062 C 15.902344 23.664062 15.898438 23.664062 15.898438 23.664062 C 15.847656 23.65625 15.796875 23.652344 15.746094 23.644531 C 15.6875 23.636719 15.625 23.625 15.566406 23.617188 C 15.5 23.605469 15.429688 23.589844 15.363281 23.578125 C 15.234375 23.550781 15.105469 23.519531 14.980469 23.484375 C 14.949219 23.476562 14.917969 23.46875 14.890625 23.457031 C 14.84375 23.445312 14.796875 23.433594 14.75 23.417969 C 14.742188 23.414062 14.734375 23.414062 14.726562 23.410156 C 14.667969 23.390625 14.609375 23.371094 14.550781 23.351562 C 14.539062 23.347656 14.527344 23.34375 14.515625 23.339844 C 14.472656 23.324219 14.429688 23.308594 14.386719 23.289062 C 14.183594 23.214844 13.988281 23.128906 13.792969 23.03125 C 13.796875 23.097656 13.804688 23.160156 13.8125 23.226562 C 13.816406 23.285156 13.824219 23.34375 13.828125 23.402344 C 13.84375 23.542969 13.851562 23.6875 13.859375 23.828125 C 13.863281 23.902344 13.867188 23.976562 13.871094 24.046875 C 13.875 24.121094 13.875 24.195312 13.878906 24.269531 C 13.886719 24.632812 13.878906 25 13.855469 25.359375 C 13.855469 25.402344 13.839844 25.445312 13.816406 25.480469 Z M 11.625 10.519531 C 12.0625 10.171875 12.472656 9.875 13.058594 10.042969 C 13.503906 10.171875 13.71875 10.527344 14.078125 10.777344 C 14.144531 10.824219 14.300781 10.792969 14.3125 10.695312 C 14.394531 10 13.523438 9.503906 12.929688 9.449219 C 12.273438 9.382812 11.488281 9.675781 11.203125 10.308594 C 11.089844 10.5625 11.472656 10.640625 11.625 10.519531 Z M 14.566406 19.242188 C 15.714844 19.972656 17.320312 19.828125 18.375 19.007812 C 18.621094 18.820312 18.324219 18.550781 18.097656 18.671875 C 17.011719 19.246094 15.929688 19.316406 14.769531 18.949219 C 14.59375 18.894531 14.363281 19.117188 14.566406 19.242188 Z M 15.050781 15.664062 C 15.0625 16.347656 15.867188 16.835938 16.492188 16.757812 C 16.625 16.742188 16.742188 16.582031 16.628906 16.46875 C 16.402344 16.238281 16.050781 16.226562 15.808594 16.011719 C 15.367188 15.621094 15.703125 15.144531 15.996094 14.792969 C 16.34375 14.371094 16.761719 13.898438 16.488281 13.328125 C 16.4375 13.21875 16.199219 13.253906 16.222656 13.390625 C 16.375 14.363281 15.035156 14.710938 15.050781 15.664062 Z M 16.851562 17.867188 C 16.429688 17.710938 16.007812 17.777344 15.613281 17.984375 C 15.453125 18.070312 15.625 18.25 15.761719 18.195312 C 16.082031 18.074219 16.425781 18.074219 16.757812 18.132812 C 16.925781 18.164062 17.035156 17.9375 16.851562 17.867188 Z M 18.601562 10.699219 C 18.617188 10.796875 18.757812 10.828125 18.832031 10.773438 C 19.242188 10.457031 19.488281 10.015625 20.070312 9.992188 C 20.550781 9.96875 20.890625 10.261719 21.257812 10.523438 C 21.394531 10.621094 21.824219 10.558594 21.726562 10.308594 C 21.457031 9.636719 20.660156 9.363281 19.984375 9.457031 C 19.433594 9.53125 18.511719 10.027344 18.601562 10.699219 Z M 20.59375 13.429688 C 20.59375 12.667969 20.375 12.054688 20.105469 12.054688 C 19.832031 12.054688 19.613281 12.667969 19.613281 13.429688 C 19.613281 14.1875 19.832031 14.800781 20.105469 14.800781 C 20.375 14.800781 20.59375 14.1875 20.59375 13.429688 Z M 17.570312 20.242188 C 16.90625 20.613281 16.191406 20.675781 15.535156 20.25 C 15.390625 20.15625 15.097656 20.335938 15.253906 20.496094 C 15.9375 21.191406 17.238281 21.269531 17.882812 20.472656 C 18.058594 20.253906 17.726562 20.15625 17.570312 20.242188 Z M 13.300781 13.429688 C 13.300781 12.667969 13.082031 12.054688 12.8125 12.054688 C 12.539062 12.054688 12.320312 12.667969 12.320312 13.429688 C 12.320312 14.1875 12.539062 14.800781 12.8125 14.800781 C 13.082031 14.800781 13.300781 14.1875 13.300781 13.429688 Z M 9.894531 17.636719 C 9.382812 16.273438 9.097656 14.75 9.097656 13.164062 C 9.097656 11.824219 9.300781 10.542969 9.660156 9.375 C 10.949219 9.242188 12.261719 8.773438 13.359375 8.246094 C 14.359375 7.765625 15.3125 7.152344 16.136719 6.398438 C 18.167969 8.019531 20.84375 9 23.421875 8.808594 C 23.902344 10.125 24.171875 11.605469 24.171875 13.164062 C 24.171875 14.851562 23.855469 16.476562 23.273438 17.910156 C 23.238281 18 23.199219 18.089844 23.164062 18.179688 C 22.578125 19.515625 21.761719 20.675781 20.753906 21.554688 C 19.53125 22.621094 18.105469 23.183594 16.636719 23.183594 C 15.910156 23.183594 15.195312 23.046875 14.511719 22.777344 C 14.386719 22.730469 14.261719 22.675781 14.140625 22.617188 C 13.957031 22.53125 13.777344 22.4375 13.597656 22.332031 C 13.597656 22.332031 13.597656 22.332031 13.59375 22.328125 C 12.042969 21.417969 10.804688 19.863281 10.023438 17.964844 C 9.976562 17.859375 9.933594 17.746094 9.894531 17.636719 Z M 25.113281 15.429688 C 24.972656 15.757812 24.691406 16.054688 24.980469 16.359375 C 25.050781 16.429688 25.222656 16.425781 25.265625 16.320312 C 25.367188 16.0625 25.441406 15.800781 25.546875 15.542969 C 25.605469 15.390625 25.65625 15.21875 25.632812 15.054688 C 25.605469 14.890625 25.527344 14.824219 25.433594 14.707031 C 25.300781 14.535156 25.300781 14.558594 25.414062 14.28125 C 25.445312 14.203125 25.570312 13.859375 25.644531 13.90625 C 25.703125 13.945312 25.875 13.902344 25.816406 13.808594 C 25.480469 13.246094 24.929688 14.292969 24.902344 14.574219 C 24.867188 14.933594 25.285156 15.019531 25.113281 15.429688 Z M 24.160156 16.949219 C 24.191406 16.851562 24.21875 16.75 24.242188 16.652344 C 24.28125 16.515625 24.3125 16.378906 24.34375 16.242188 C 24.363281 16.175781 24.375 16.109375 24.390625 16.042969 C 24.414062 15.9375 24.433594 15.835938 24.453125 15.730469 C 24.472656 15.636719 24.488281 15.539062 24.503906 15.441406 C 24.515625 15.382812 24.527344 15.324219 24.535156 15.261719 C 24.542969 15.210938 24.550781 15.15625 24.558594 15.105469 C 24.574219 15 24.585938 14.894531 24.601562 14.785156 C 24.625 14.578125 24.644531 14.367188 24.660156 14.152344 C 24.683594 13.828125 24.695312 13.496094 24.695312 13.164062 C 24.695312 13.109375 24.695312 13.054688 24.691406 13 C 25.324219 12.375 26.089844 13 26.300781 13.78125 C 26.46875 14.410156 26.421875 15.152344 26.324219 15.792969 C 26.128906 17.042969 25.152344 18.382812 23.800781 17.992188 C 23.824219 17.941406 23.84375 17.890625 23.863281 17.839844 C 23.933594 17.65625 23.996094 17.46875 24.058594 17.28125 C 24.074219 17.226562 24.09375 17.171875 24.109375 17.117188 C 24.128906 17.058594 24.144531 17.003906 24.160156 16.949219 Z M 25.019531 44.035156 C 25.238281 43.234375 25.636719 42.554688 26.101562 41.875 C 26.671875 41.039062 27.042969 40.253906 26.660156 39.25 C 26.324219 38.355469 25.65625 37.628906 25.335938 36.726562 C 25.160156 36.234375 25.15625 35.65625 25.320312 35.160156 C 25.210938 34.714844 25.28125 34.136719 25.269531 33.742188 C 25.246094 33.058594 25.226562 32.375 25.203125 31.691406 C 25.171875 30.695312 25.050781 29.628906 25.105469 28.609375 C 24.882812 28.511719 24.660156 28.417969 24.441406 28.324219 C 24.324219 28.273438 24.207031 28.226562 24.089844 28.175781 C 24.195312 29.683594 24.109375 31.234375 24.003906 32.722656 C 23.964844 33.261719 23.917969 33.796875 23.859375 34.332031 C 23.839844 34.519531 23.816406 34.707031 23.796875 34.890625 C 23.582031 34.984375 23.363281 35.066406 23.140625 35.144531 C 22.472656 35.375 21.78125 35.546875 21.105469 35.691406 C 19.792969 35.980469 18.460938 36.148438 17.121094 36.191406 C 14.929688 36.261719 12.644531 36.058594 10.546875 35.351562 C 10.320312 35.273438 10.097656 35.191406 9.875 35.105469 C 9.859375 34.988281 9.847656 34.875 9.832031 34.757812 C 9.753906 34.070312 9.691406 33.382812 9.640625 32.691406 C 9.546875 31.289062 9.46875 29.847656 9.546875 28.429688 C 9.277344 28.542969 9.007812 28.660156 8.742188 28.78125 C 8.738281 29.144531 8.714844 29.507812 8.707031 29.859375 C 8.695312 30.507812 8.671875 31.152344 8.648438 31.796875 C 8.628906 32.480469 8.609375 33.160156 8.585938 33.839844 C 8.574219 34.210938 8.625 34.675781 8.546875 35.078125 C 8.726562 35.585938 8.722656 36.191406 8.539062 36.707031 C 8.234375 37.554688 7.628906 38.242188 7.28125 39.0625 C 6.839844 40.097656 7.152344 40.902344 7.753906 41.78125 C 8.234375 42.484375 8.648438 43.183594 8.875 44.015625 C 9.082031 44.789062 9.148438 45.597656 9.164062 46.394531 C 9.195312 47.871094 9.066406 49.339844 9.246094 50.796875 C 12.335938 51.820312 15.621094 52.210938 18.863281 51.917969 C 20.839844 51.738281 22.789062 51.304688 24.664062 50.636719 C 24.800781 49.292969 24.703125 47.941406 24.71875 46.585938 C 24.726562 45.726562 24.796875 44.867188 25.019531 44.035156 Z M 25.304688 50.398438 C 25.535156 47.703125 24.789062 44.832031 26.378906 42.460938 C 26.78125 41.859375 27.269531 41.265625 27.417969 40.535156 C 27.570312 39.804688 27.320312 39.105469 26.980469 38.464844 C 26.582031 37.710938 26 37.015625 25.796875 36.167969 C 25.742188 35.933594 25.730469 35.699219 25.757812 35.476562 C 25.777344 35.320312 25.820312 35.167969 25.878906 35.027344 C 26.058594 34.617188 26.410156 34.304688 26.921875 34.207031 C 27.074219 34.179688 27.121094 33.964844 26.933594 33.957031 C 26.496094 33.941406 26.140625 34.078125 25.867188 34.3125 C 25.847656 34.109375 25.824219 33.914062 25.816406 33.738281 C 25.785156 33.074219 25.753906 32.40625 25.722656 31.742188 C 25.691406 31.132812 25.667969 30.519531 25.632812 29.910156 C 25.613281 29.554688 25.609375 29.1875 25.585938 28.824219 C 25.703125 28.882812 25.824219 28.9375 25.941406 29 C 25.941406 29 25.945312 29 25.945312 29 C 26.921875 29.488281 27.597656 30.003906 28.074219 30.621094 C 29.105469 31.945312 29.238281 33.8125 29.347656 35.3125 L 29.46875 37.03125 C 29.5625 38.316406 29.65625 39.605469 29.746094 40.894531 C 29.765625 41.167969 29.785156 41.4375 29.804688 41.707031 C 29.949219 43.734375 30.097656 45.757812 30.242188 47.78125 C 28.691406 48.847656 27.03125 49.726562 25.304688 50.398438 " fill-opacity="1" fill-rule="nonzero"/></g><g clip-path="url(#598289ceac)"><path fill="#00151f" d="M 7.390625 14.039062 C 7.363281 13.808594 7.539062 13.644531 7.773438 13.636719 C 8.0625 13.625 8.238281 13.878906 8.308594 14.128906 C 8.414062 14.484375 8.289062 14.523438 8.046875 14.707031 C 7.527344 15.101562 8.148438 16.074219 8.398438 16.476562 C 8.523438 16.675781 8.144531 16.835938 8.015625 16.691406 C 7.644531 16.265625 7.378906 15.648438 7.394531 15.074219 C 7.402344 14.859375 7.445312 14.640625 7.613281 14.492188 C 7.667969 14.445312 7.765625 14.421875 7.808594 14.375 C 8.078125 14.09375 7.554688 14.261719 7.585938 14.042969 C 7.574219 14.136719 7.398438 14.128906 7.390625 14.039062 Z M 13.300781 13.429688 C 13.300781 14.1875 13.082031 14.800781 12.8125 14.800781 C 12.539062 14.800781 12.320312 14.1875 12.320312 13.429688 C 12.320312 12.667969 12.539062 12.054688 12.8125 12.054688 C 13.082031 12.054688 13.300781 12.667969 13.300781 13.429688 Z M 11.625 10.519531 C 11.472656 10.640625 11.089844 10.5625 11.203125 10.308594 C 11.488281 9.675781 12.273438 9.382812 12.929688 9.449219 C 13.523438 9.503906 14.394531 10 14.3125 10.695312 C 14.300781 10.792969 14.144531 10.824219 14.078125 10.777344 C 13.71875 10.527344 13.503906 10.171875 13.058594 10.042969 C 12.472656 9.875 12.0625 10.171875 11.625 10.519531 Z M 15.050781 15.664062 C 15.035156 14.710938 16.375 14.363281 16.222656 13.390625 C 16.199219 13.253906 16.4375 13.21875 16.488281 13.328125 C 16.761719 13.898438 16.34375 14.371094 15.996094 14.792969 C 15.703125 15.144531 15.367188 15.621094 15.808594 16.011719 C 16.050781 16.226562 16.402344 16.238281 16.628906 16.46875 C 16.742188 16.582031 16.625 16.742188 16.492188 16.757812 C 15.867188 16.835938 15.0625 16.347656 15.050781 15.664062 Z M 16.851562 17.867188 C 17.035156 17.9375 16.925781 18.164062 16.757812 18.132812 C 16.425781 18.074219 16.082031 18.074219 15.761719 18.195312 C 15.625 18.25 15.453125 18.070312 15.613281 17.984375 C 16.007812 17.777344 16.429688 17.710938 16.851562 17.867188 Z M 17.882812 20.472656 C 17.238281 21.269531 15.9375 21.191406 15.253906 20.496094 C 15.097656 20.335938 15.390625 20.15625 15.535156 20.25 C 16.191406 20.675781 16.90625 20.613281 17.570312 20.242188 C 17.726562 20.15625 18.058594 20.253906 17.882812 20.472656 Z M 14.769531 18.949219 C 15.929688 19.316406 17.011719 19.246094 18.097656 18.671875 C 18.324219 18.550781 18.621094 18.820312 18.375 19.007812 C 17.320312 19.828125 15.714844 19.972656 14.566406 19.242188 C 14.363281 19.117188 14.59375 18.894531 14.769531 18.949219 Z M 20.59375 13.429688 C 20.59375 14.1875 20.375 14.800781 20.105469 14.800781 C 19.832031 14.800781 19.613281 14.1875 19.613281 13.429688 C 19.613281 12.667969 19.832031 12.054688 20.105469 12.054688 C 20.375 12.054688 20.59375 12.667969 20.59375 13.429688 Z M 18.601562 10.699219 C 18.511719 10.027344 19.433594 9.53125 19.984375 9.457031 C 20.660156 9.363281 21.457031 9.636719 21.726562 10.308594 C 21.824219 10.558594 21.394531 10.621094 21.257812 10.523438 C 20.890625 10.261719 20.550781 9.96875 20.070312 9.992188 C 19.488281 10.015625 19.242188 10.457031 18.832031 10.773438 C 18.757812 10.828125 18.617188 10.796875 18.601562 10.699219 Z M 25.113281 15.429688 C 25.285156 15.019531 24.867188 14.933594 24.902344 14.574219 C 24.929688 14.292969 25.480469 13.246094 25.816406 13.808594 C 25.875 13.902344 25.703125 13.945312 25.644531 13.90625 C 25.570312 13.859375 25.445312 14.203125 25.414062 14.28125 C 25.300781 14.558594 25.300781 14.535156 25.433594 14.707031 C 25.527344 14.824219 25.605469 14.890625 25.632812 15.054688 C 25.65625 15.21875 25.605469 15.390625 25.546875 15.542969 C 25.441406 15.800781 25.367188 16.0625 25.265625 16.320312 C 25.222656 16.425781 25.050781 16.429688 24.980469 16.359375 C 24.691406 16.050781 24.972656 15.757812 25.113281 15.429688 Z M 25.304688 50.398438 C 25.535156 47.703125 24.789062 44.832031 26.378906 42.460938 C 26.78125 41.859375 27.269531 41.265625 27.417969 40.535156 C 27.566406 39.804688 27.320312 39.101562 26.980469 38.464844 C 26.582031 37.710938 25.996094 37.015625 25.796875 36.167969 C 25.742188 35.933594 25.730469 35.699219 25.757812 35.476562 C 25.777344 35.316406 25.820312 35.167969 25.878906 35.027344 C 26.058594 34.617188 26.40625 34.304688 26.921875 34.207031 C 27.074219 34.179688 27.121094 33.964844 26.933594 33.957031 C 26.496094 33.941406 26.136719 34.078125 25.867188 34.3125 C 25.847656 34.109375 25.824219 33.914062 25.816406 33.738281 C 25.785156 33.074219 25.753906 32.40625 25.722656 31.742188 C 25.691406 31.132812 25.667969 30.519531 25.632812 29.910156 C 25.613281 29.554688 25.609375 29.1875 25.585938 28.824219 C 25.703125 28.882812 25.824219 28.9375 25.941406 29 C 25.941406 29 25.945312 29 25.945312 29 C 26.921875 29.488281 27.597656 30.003906 28.074219 30.621094 C 29.101562 31.945312 29.238281 33.8125 29.34375 35.3125 L 29.46875 37.027344 C 29.5625 38.316406 29.65625 39.605469 29.746094 40.894531 C 29.765625 41.167969 29.785156 41.4375 29.804688 41.707031 C 29.949219 43.734375 30.097656 45.757812 30.242188 47.78125 C 28.691406 48.847656 27.03125 49.726562 25.304688 50.398438 Z M 25.019531 44.035156 C 24.796875 44.867188 24.726562 45.726562 24.71875 46.585938 C 24.703125 47.941406 24.800781 49.292969 24.660156 50.636719 C 22.789062 51.304688 20.839844 51.738281 18.863281 51.917969 C 15.621094 52.210938 12.335938 51.820312 9.246094 50.796875 C 9.066406 49.339844 9.195312 47.871094 9.164062 46.394531 C 9.148438 45.597656 9.082031 44.789062 8.871094 44.015625 C 8.648438 43.183594 8.234375 42.484375 7.753906 41.78125 C 7.152344 40.902344 6.835938 40.097656 7.28125 39.0625 C 7.628906 38.242188 8.234375 37.554688 8.535156 36.707031 C 8.722656 36.191406 8.726562 35.585938 8.546875 35.078125 C 8.625 34.675781 8.574219 34.210938 8.585938 33.839844 C 8.609375 33.160156 8.628906 32.480469 8.648438 31.796875 C 8.671875 31.152344 8.695312 30.507812 8.707031 29.859375 C 8.714844 29.507812 8.738281 29.144531 8.742188 28.78125 C 9.007812 28.660156 9.277344 28.542969 9.546875 28.429688 C 9.46875 29.847656 9.546875 31.289062 9.640625 32.691406 C 9.691406 33.382812 9.753906 34.070312 9.832031 34.757812 C 9.847656 34.875 9.859375 34.988281 9.875 35.105469 C 10.097656 35.191406 10.320312 35.273438 10.546875 35.351562 C 12.644531 36.058594 14.929688 36.261719 17.121094 36.191406 C 18.460938 36.148438 19.792969 35.980469 21.105469 35.691406 C 21.78125 35.546875 22.472656 35.375 23.140625 35.144531 C 23.363281 35.066406 23.582031 34.984375 23.792969 34.890625 C 23.816406 34.707031 23.839844 34.519531 23.859375 34.332031 C 23.917969 33.796875 23.964844 33.261719 24.003906 32.722656 C 24.109375 31.234375 24.195312 29.683594 24.089844 28.175781 C 24.207031 28.226562 24.324219 28.273438 24.441406 28.324219 C 24.660156 28.417969 24.882812 28.511719 25.101562 28.609375 C 25.050781 29.628906 25.171875 30.695312 25.203125 31.691406 C 25.226562 32.375 25.246094 33.058594 25.269531 33.742188 C 25.28125 34.136719 25.210938 34.714844 25.320312 35.15625 C 25.15625 35.65625 25.160156 36.234375 25.335938 36.726562 C 25.65625 37.628906 26.324219 38.355469 26.660156 39.25 C 27.042969 40.253906 26.671875 41.039062 26.101562 41.875 C 25.636719 42.554688 25.238281 43.234375 25.019531 44.035156 Z M 3.953125 48.300781 L 4.375 42.445312 L 4.433594 41.65625 L 4.890625 35.3125 C 4.996094 33.8125 5.132812 31.945312 6.160156 30.621094 C 6.46875 30.21875 6.851562 29.867188 7.339844 29.542969 C 7.632812 29.347656 7.941406 29.171875 8.265625 29.011719 C 8.246094 29.324219 8.238281 29.640625 8.222656 29.953125 C 8.1875 30.597656 8.160156 31.25 8.128906 31.898438 C 8.097656 32.546875 8.066406 33.195312 8.035156 33.84375 C 8.03125 33.976562 8.015625 34.125 8 34.28125 C 7.730469 34.066406 7.386719 33.945312 6.960938 33.957031 C 6.785156 33.960938 6.785156 34.175781 6.949219 34.207031 C 7.410156 34.296875 7.761719 34.585938 7.964844 34.964844 C 8.058594 35.144531 8.117188 35.34375 8.140625 35.550781 C 8.152344 35.664062 8.152344 35.785156 8.140625 35.902344 C 8.046875 36.804688 7.449219 37.550781 7.015625 38.3125 C 6.648438 38.957031 6.335938 39.675781 6.4375 40.433594 C 6.539062 41.1875 7.027344 41.804688 7.441406 42.417969 C 9.109375 44.882812 8.292969 47.800781 8.578125 50.566406 C 6.96875 49.980469 5.414062 49.222656 3.953125 48.300781 Z M 10.480469 28.027344 C 12.121094 27.304688 13.210938 26.472656 13.816406 25.480469 C 13.839844 25.445312 13.855469 25.402344 13.855469 25.359375 C 13.878906 25 13.886719 24.632812 13.878906 24.269531 C 13.875 24.195312 13.875 24.121094 13.871094 24.046875 C 13.867188 23.976562 13.863281 23.902344 13.859375 23.828125 C 13.851562 23.6875 13.84375 23.542969 13.828125 23.402344 C 13.824219 23.34375 13.816406 23.285156 13.8125 23.226562 C 13.804688 23.160156 13.796875 23.097656 13.789062 23.03125 C 13.988281 23.128906 14.183594 23.214844 14.386719 23.289062 C 14.429688 23.308594 14.472656 23.324219 14.515625 23.339844 C 14.527344 23.34375 14.539062 23.347656 14.550781 23.351562 C 14.609375 23.371094 14.667969 23.390625 14.726562 23.410156 C 14.734375 23.414062 14.742188 23.414062 14.75 23.417969 C 14.796875 23.433594 14.84375 23.445312 14.890625 23.457031 C 14.917969 23.46875 14.949219 23.476562 14.980469 23.484375 C 15.105469 23.519531 15.234375 23.550781 15.363281 23.578125 C 15.429688 23.589844 15.5 23.605469 15.566406 23.617188 C 15.625 23.625 15.6875 23.636719 15.746094 23.644531 C 15.796875 23.652344 15.847656 23.65625 15.898438 23.664062 C 15.898438 23.664062 15.902344 23.664062 15.90625 23.664062 C 15.957031 23.671875 16.003906 23.675781 16.054688 23.679688 C 16.085938 23.683594 16.121094 23.6875 16.15625 23.6875 C 16.179688 23.691406 16.203125 23.691406 16.226562 23.691406 C 16.261719 23.695312 16.292969 23.695312 16.328125 23.699219 C 16.367188 23.703125 16.410156 23.703125 16.449219 23.703125 C 16.511719 23.707031 16.574219 23.707031 16.636719 23.707031 C 16.6875 23.707031 16.734375 23.707031 16.785156 23.703125 C 16.835938 23.703125 16.886719 23.703125 16.933594 23.699219 C 16.976562 23.695312 17.019531 23.695312 17.0625 23.691406 C 17.316406 23.675781 17.570312 23.640625 17.820312 23.59375 C 17.871094 23.585938 17.917969 23.574219 17.96875 23.5625 C 18.015625 23.554688 18.0625 23.542969 18.109375 23.53125 C 18.335938 23.476562 18.558594 23.410156 18.777344 23.332031 C 18.816406 23.316406 18.859375 23.300781 18.898438 23.285156 C 18.921875 23.277344 18.945312 23.269531 18.96875 23.257812 C 18.980469 23.253906 18.996094 23.25 19.003906 23.246094 L 19.738281 22.898438 C 19.773438 22.878906 19.808594 22.859375 19.84375 22.839844 L 20.53125 22.398438 C 20.53125 22.417969 20.523438 22.441406 20.523438 22.464844 C 20.511719 22.53125 20.5 22.597656 20.492188 22.664062 C 20.480469 22.742188 20.46875 22.820312 20.460938 22.898438 C 20.457031 22.925781 20.453125 22.949219 20.449219 22.976562 C 20.441406 23.046875 20.433594 23.113281 20.425781 23.183594 C 20.425781 23.199219 20.421875 23.210938 20.421875 23.222656 C 20.414062 23.296875 20.40625 23.367188 20.402344 23.441406 C 20.394531 23.519531 20.386719 23.597656 20.382812 23.675781 C 20.378906 23.714844 20.375 23.753906 20.375 23.792969 C 20.371094 23.863281 20.367188 23.933594 20.367188 24 C 20.363281 24.007812 20.363281 24.015625 20.363281 24.023438 C 20.359375 24.109375 20.359375 24.195312 20.355469 24.28125 C 20.355469 24.285156 20.355469 24.285156 20.355469 24.289062 C 20.355469 24.378906 20.351562 24.46875 20.351562 24.558594 C 20.351562 24.824219 20.359375 25.09375 20.375 25.359375 C 20.378906 25.402344 20.394531 25.445312 20.414062 25.480469 C 21.007812 26.457031 22.074219 27.277344 23.664062 27.988281 C 23.605469 29.535156 23.597656 31.082031 23.453125 32.628906 C 23.390625 33.257812 23.316406 33.882812 23.230469 34.507812 C 22.472656 34.730469 21.714844 34.972656 20.9375 35.136719 C 19.691406 35.398438 18.417969 35.550781 17.144531 35.597656 C 14.878906 35.683594 12.679688 35.359375 10.480469 34.894531 C 10.375 34.1875 10.285156 33.476562 10.214844 32.761719 C 10.0625 31.253906 10.046875 29.746094 9.996094 28.234375 C 10.160156 28.167969 10.320312 28.097656 10.480469 28.027344 Z M 24.691406 13 C 25.324219 12.375 26.089844 13 26.300781 13.78125 C 26.46875 14.410156 26.421875 15.152344 26.320312 15.792969 C 26.128906 17.042969 25.152344 18.382812 23.800781 17.992188 C 23.824219 17.941406 23.84375 17.890625 23.863281 17.839844 C 23.929688 17.65625 23.996094 17.46875 24.058594 17.28125 C 24.074219 17.226562 24.09375 17.171875 24.109375 17.117188 C 24.128906 17.058594 24.144531 17.003906 24.160156 16.949219 C 24.1875 16.851562 24.21875 16.75 24.242188 16.652344 C 24.28125 16.515625 24.3125 16.378906 24.34375 16.242188 C 24.363281 16.175781 24.375 16.109375 24.390625 16.042969 C 24.414062 15.9375 24.433594 15.835938 24.453125 15.730469 C 24.472656 15.636719 24.488281 15.539062 24.503906 15.441406 C 24.515625 15.382812 24.523438 15.324219 24.535156 15.261719 C 24.542969 15.210938 24.550781 15.15625 24.558594 15.105469 C 24.574219 15 24.585938 14.894531 24.597656 14.785156 C 24.625 14.578125 24.644531 14.367188 24.660156 14.152344 C 24.683594 13.828125 24.695312 13.496094 24.695312 13.164062 C 24.695312 13.109375 24.695312 13.054688 24.691406 13 Z M 10.023438 17.964844 C 9.976562 17.859375 9.933594 17.746094 9.894531 17.636719 C 9.382812 16.273438 9.097656 14.75 9.097656 13.164062 C 9.097656 11.824219 9.296875 10.542969 9.660156 9.375 C 10.949219 9.242188 12.261719 8.773438 13.359375 8.246094 C 14.359375 7.765625 15.3125 7.152344 16.136719 6.398438 C 18.167969 8.019531 20.84375 9 23.421875 8.808594 C 23.902344 10.125 24.171875 11.605469 24.171875 13.164062 C 24.171875 14.851562 23.855469 16.476562 23.273438 17.910156 C 23.238281 18 23.199219 18.089844 23.164062 18.179688 C 22.578125 19.515625 21.761719 20.675781 20.753906 21.554688 C 19.53125 22.621094 18.105469 23.183594 16.636719 23.183594 C 15.910156 23.183594 15.195312 23.046875 14.511719 22.777344 C 14.386719 22.730469 14.261719 22.675781 14.140625 22.617188 C 13.957031 22.53125 13.777344 22.4375 13.597656 22.332031 C 13.597656 22.332031 13.59375 22.332031 13.59375 22.328125 C 12.042969 21.417969 10.804688 19.863281 10.023438 17.964844 Z M 6.886719 13.71875 C 7.035156 12.839844 7.863281 12.058594 8.582031 12.832031 C 8.578125 12.941406 8.578125 13.054688 8.578125 13.164062 C 8.578125 13.304688 8.578125 13.445312 8.582031 13.585938 C 8.585938 13.703125 8.589844 13.820312 8.597656 13.9375 C 8.601562 13.960938 8.601562 13.984375 8.601562 14.003906 C 8.609375 14.105469 8.617188 14.203125 8.625 14.304688 C 8.628906 14.367188 8.636719 14.429688 8.640625 14.492188 C 8.648438 14.546875 8.652344 14.601562 8.65625 14.652344 C 8.671875 14.796875 8.691406 14.933594 8.710938 15.074219 C 8.726562 15.1875 8.746094 15.304688 8.765625 15.417969 C 8.769531 15.449219 8.773438 15.480469 8.78125 15.511719 C 8.796875 15.601562 8.8125 15.691406 8.828125 15.78125 C 8.855469 15.914062 8.882812 16.046875 8.914062 16.175781 C 8.929688 16.238281 8.941406 16.296875 8.957031 16.355469 C 9.046875 16.726562 9.152344 17.089844 9.269531 17.441406 C 9.285156 17.488281 9.304688 17.535156 9.320312 17.582031 C 9.34375 17.652344 9.367188 17.71875 9.394531 17.785156 C 8.191406 18.074219 7.21875 16.914062 6.964844 15.789062 C 6.816406 15.128906 6.773438 14.386719 6.886719 13.71875 Z M 31.980469 29.199219 C 30.828125 27.085938 28.015625 25.089844 29.011719 22.390625 C 29.464844 21.167969 30.386719 20.171875 30.761719 18.914062 C 31.152344 17.609375 30.878906 16.265625 30.335938 15.046875 C 29.628906 13.449219 28.554688 12.023438 27.589844 10.578125 C 27.519531 10.472656 27.449219 10.367188 27.378906 10.257812 C 27.355469 10.125 27.332031 9.992188 27.308594 9.859375 C 26.632812 6.144531 24.710938 3 22.039062 1.238281 C 20.996094 0.546875 20.035156 0.207031 19.101562 0.199219 L 19.066406 0.199219 C 18.0625 0.199219 17.144531 0.636719 16.636719 1.328125 C 16.125 0.628906 15.1875 0.1875 14.171875 0.199219 C 13.238281 0.207031 12.277344 0.546875 11.234375 1.238281 C 8.558594 3 6.636719 6.144531 5.964844 9.859375 C 5.933594 10.023438 5.90625 10.1875 5.882812 10.347656 C 5.082031 11.535156 4.25 12.710938 3.539062 13.957031 C 2.839844 15.183594 2.242188 16.570312 2.351562 18.015625 C 2.449219 19.292969 3.148438 20.316406 3.765625 21.394531 C 4.472656 22.640625 4.753906 23.878906 4.097656 25.214844 C 3.53125 26.378906 2.589844 27.316406 1.859375 28.375 C 0.3125 30.621094 -0.28125 33.472656 0.238281 36.148438 C 0.691406 38.5 2.015625 40.617188 3.878906 42.082031 L 3.421875 48.417969 C 3.414062 48.515625 3.460938 48.609375 3.539062 48.660156 C 5.152344 49.691406 6.871094 50.523438 8.660156 51.152344 C 8.882812 51.230469 9.109375 51.304688 9.332031 51.375 C 11.730469 52.140625 14.242188 52.535156 16.757812 52.535156 C 17.476562 52.535156 18.195312 52.503906 18.910156 52.4375 C 20.84375 52.265625 22.75 51.851562 24.585938 51.214844 C 24.804688 51.140625 25.019531 51.0625 25.234375 50.980469 C 27.140625 50.265625 28.964844 49.308594 30.664062 48.128906 C 30.738281 48.074219 30.78125 47.988281 30.773438 47.894531 C 30.613281 45.679688 30.453125 43.460938 30.296875 41.242188 C 33.359375 38.128906 34.148438 33.179688 31.980469 29.199219 " fill-opacity="1" fill-rule="nonzero"/></g></svg>