<svg xmlns="http://www.w3.org/2000/svg" xmlns:xlink="http://www.w3.org/1999/xlink" width="40" zoomAndPan="magnify" viewBox="0 0 30 30.000001" height="40" preserveAspectRatio="xMidYMid meet" version="1.0"><defs><clipPath id="e77458e640"><path d="M 0.484375 0.109375 L 29.515625 0.109375 L 29.515625 29.03125 L 0.484375 29.03125 Z M 0.484375 0.109375 " clip-rule="nonzero"/></clipPath></defs><g clip-path="url(#e77458e640)"><path fill="#000000" d="M 12.753906 28.988281 C 12.640625 28.941406 12.429688 28.894531 12.28125 28.890625 C 11.886719 28.882812 9.414062 28.101562 8.941406 27.835938 C 8.71875 27.710938 8.171875 27.410156 7.730469 27.167969 C 6.542969 26.515625 4.925781 25.125 3.882812 23.863281 C 2.996094 22.785156 1.652344 20.492188 1.496094 19.792969 C 1.460938 19.621094 1.296875 19.070312 1.132812 18.5625 C 0.644531 17.054688 0.484375 14.75 0.71875 12.648438 C 0.976562 10.335938 2.171875 7.441406 3.550781 5.792969 C 3.804688 5.488281 4.101562 5.125 4.214844 4.984375 C 4.472656 4.660156 5.148438 3.984375 5.472656 3.722656 C 5.609375 3.613281 5.972656 3.3125 6.273438 3.058594 C 6.578125 2.804688 6.984375 2.503906 7.175781 2.386719 C 8.210938 1.773438 9.492188 1.113281 9.890625 0.996094 C 12.585938 0.191406 13.070312 0.105469 15.011719 0.109375 C 16.472656 0.109375 17.933594 0.261719 18.578125 0.484375 C 18.800781 0.5625 19.320312 0.722656 19.734375 0.84375 C 20.480469 1.0625 21.5 1.539062 22.527344 2.148438 C 22.820312 2.320312 23.085938 2.460938 23.117188 2.460938 C 23.152344 2.460938 23.453125 2.703125 23.792969 2.992188 C 24.128906 3.285156 24.621094 3.699219 24.886719 3.910156 C 25.527344 4.425781 27.089844 6.375 27.558594 7.253906 C 27.769531 7.640625 28.054688 8.164062 28.191406 8.414062 C 28.464844 8.902344 29.121094 10.894531 29.292969 11.761719 C 29.484375 12.714844 29.511719 16.0625 29.339844 17.082031 C 28.722656 20.675781 26.890625 23.75 23.941406 26.128906 C 23.207031 26.722656 22.917969 26.90625 21.40625 27.722656 C 20.683594 28.113281 19.261719 28.597656 18.078125 28.859375 C 17.269531 29.035156 13.085938 29.140625 12.753906 28.988281 Z M 17.402344 27.371094 C 18.722656 26.699219 20.203125 25.140625 21.085938 23.503906 C 21.289062 23.125 21.433594 22.75 21.402344 22.671875 C 21.328125 22.480469 15.726562 22.460938 15.535156 22.652344 C 15.40625 22.785156 15.351562 27.679688 15.480469 27.808594 C 15.640625 27.96875 16.707031 27.722656 17.402344 27.371094 Z M 14.210938 25.304688 C 14.238281 23.972656 14.222656 22.800781 14.171875 22.695312 C 14.097656 22.527344 14.011719 22.511719 13.480469 22.570312 C 13.148438 22.605469 11.886719 22.632812 10.679688 22.632812 C 8.574219 22.632812 8.484375 22.640625 8.484375 22.828125 C 8.484375 22.9375 8.523438 23.050781 8.574219 23.078125 C 8.621094 23.109375 8.785156 23.375 8.9375 23.664062 C 10 25.726562 12.433594 27.808594 13.707031 27.746094 L 14.160156 27.726562 Z M 20.96875 26.640625 C 21.257812 26.457031 21.710938 26.195312 21.976562 26.058594 C 23.09375 25.484375 25.796875 22.933594 25.613281 22.632812 C 25.515625 22.476562 23 22.5 22.875 22.65625 C 22.820312 22.726562 22.539062 23.246094 22.25 23.808594 C 21.960938 24.371094 21.367188 25.289062 20.929688 25.855469 C 20.492188 26.417969 20.136719 26.898438 20.136719 26.921875 C 20.136719 27.058594 20.507812 26.929688 20.96875 26.640625 Z M 9.476562 26.480469 C 9.398438 26.378906 9.0625 25.929688 8.722656 25.484375 C 8.386719 25.039062 7.917969 24.292969 7.683594 23.828125 C 7.042969 22.570312 7.140625 22.632812 5.753906 22.632812 C 4.753906 22.632812 4.566406 22.65625 4.566406 22.785156 C 4.566406 22.984375 6.34375 24.78125 7.117188 25.363281 C 8.410156 26.332031 9.886719 27.035156 9.476562 26.480469 Z M 6.53125 21.3125 C 6.566406 21.253906 6.527344 21.015625 6.441406 20.785156 C 6.183594 20.097656 5.699219 17.414062 5.632812 16.34375 C 5.601562 15.792969 5.523438 15.285156 5.460938 15.207031 C 5.371094 15.101562 4.976562 15.070312 3.726562 15.070312 C 2.832031 15.070312 2.039062 15.113281 1.957031 15.164062 C 1.523438 15.441406 2.214844 18.730469 3.042969 20.359375 C 3.601562 21.449219 3.542969 21.421875 5.113281 21.421875 C 5.96875 21.421875 6.488281 21.382812 6.53125 21.3125 Z M 14.214844 21.160156 C 14.273438 21.003906 14.300781 19.742188 14.285156 18.007812 L 14.257812 15.121094 L 10.644531 15.09375 C 8.648438 15.082031 6.964844 15.109375 6.886719 15.160156 C 6.769531 15.234375 6.765625 15.457031 6.859375 16.546875 C 7.039062 18.628906 7.628906 21.097656 8.003906 21.335938 C 8.074219 21.382812 9.476562 21.421875 11.121094 21.421875 L 14.113281 21.421875 Z M 22.082031 21.09375 C 22.636719 20.207031 23.417969 15.347656 23.042969 15.117188 C 22.898438 15.023438 15.6875 15.058594 15.597656 15.148438 C 15.503906 15.246094 15.367188 20.722656 15.453125 21.054688 L 15.519531 21.320312 L 21.941406 21.320312 Z M 26.632812 21.09375 C 27.039062 20.636719 27.378906 19.894531 27.757812 18.628906 C 28.21875 17.105469 28.484375 15.203125 28.257812 15.058594 C 28.035156 14.914062 24.722656 14.945312 24.527344 15.09375 C 24.398438 15.191406 24.339844 15.511719 24.257812 16.515625 C 24.144531 17.933594 23.8125 19.867188 23.589844 20.390625 C 23.515625 20.574219 23.453125 20.859375 23.453125 21.023438 L 23.453125 21.320312 L 24.941406 21.320312 C 26.359375 21.320312 26.441406 21.3125 26.632812 21.09375 Z M 5.503906 13.75 C 5.570312 13.652344 5.636719 13.242188 5.652344 12.835938 C 5.695312 11.785156 6.222656 8.898438 6.460938 8.429688 C 6.652344 8.054688 6.507812 8.007812 5.058594 8.007812 C 3.804688 8.007812 3.640625 8.03125 3.464844 8.207031 C 3.175781 8.496094 2.808594 9.269531 2.5 10.238281 C 2.351562 10.703125 2.167969 11.28125 2.089844 11.515625 C 1.878906 12.183594 1.796875 13.617188 1.957031 13.8125 C 2.070312 13.949219 2.332031 13.96875 3.738281 13.945312 C 5.160156 13.925781 5.402344 13.898438 5.503906 13.75 Z M 14.308594 11.035156 C 14.335938 9.511719 14.320312 8.203125 14.273438 8.136719 C 14.207031 8.039062 13.457031 8.011719 11.109375 8.011719 C 9.414062 8.011719 7.984375 8.046875 7.921875 8.085938 C 7.738281 8.214844 7.46875 9.027344 7.222656 10.199219 C 6.964844 11.417969 6.726562 13.480469 6.816406 13.714844 C 6.863281 13.839844 7.425781 13.855469 10.566406 13.835938 L 14.257812 13.808594 Z M 23.027344 13.734375 C 23.277344 13.421875 22.765625 9.875 22.277344 8.5625 L 22.089844 8.058594 L 15.566406 8.058594 L 15.515625 10.816406 C 15.488281 12.332031 15.5 13.636719 15.546875 13.714844 C 15.65625 13.914062 22.867188 13.929688 23.027344 13.734375 Z M 28.195312 13.734375 C 28.34375 13.621094 28.347656 13.507812 28.234375 12.648438 C 28.015625 11.023438 27.042969 8.359375 26.523438 7.980469 C 26.355469 7.859375 23.570312 7.953125 23.4375 8.085938 C 23.351562 8.171875 23.367188 8.292969 23.492188 8.558594 C 23.585938 8.757812 23.726562 9.292969 23.808594 9.75 C 23.886719 10.207031 24 10.738281 24.054688 10.933594 C 24.113281 11.128906 24.1875 11.800781 24.222656 12.429688 C 24.265625 13.210938 24.332031 13.617188 24.429688 13.714844 C 24.621094 13.910156 27.949219 13.925781 28.195312 13.734375 Z M 6.894531 6.773438 C 6.984375 6.703125 7.296875 6.171875 7.59375 5.589844 C 7.886719 5.007812 8.460938 4.105469 8.863281 3.582031 C 9.28125 3.042969 9.5625 2.597656 9.511719 2.546875 C 9.398438 2.433594 7.734375 3.394531 6.9375 4.035156 C 5.777344 4.96875 4.320312 6.535156 4.402344 6.753906 C 4.476562 6.949219 6.65625 6.964844 6.894531 6.773438 Z M 14.273438 6.6875 C 14.382812 6.597656 14.410156 6.035156 14.410156 4.015625 L 14.410156 1.457031 L 14.160156 1.394531 C 13.828125 1.3125 13.550781 1.390625 12.648438 1.8125 C 11.722656 2.246094 10.589844 3.222656 9.800781 4.261719 C 9.066406 5.230469 8.289062 6.679688 8.449219 6.777344 C 8.644531 6.898438 14.125 6.8125 14.273438 6.6875 Z M 21.484375 6.710938 C 21.566406 6.578125 20.710938 5.050781 20.09375 4.226562 C 19.320312 3.191406 18.324219 2.332031 17.351562 1.859375 C 16.417969 1.402344 16.109375 1.308594 15.839844 1.398438 C 15.660156 1.453125 15.644531 1.617188 15.578125 3.988281 C 15.527344 5.835938 15.542969 6.558594 15.625 6.660156 C 15.71875 6.773438 16.289062 6.800781 18.585938 6.800781 C 20.148438 6.800781 21.453125 6.761719 21.484375 6.710938 Z M 25.703125 6.710938 C 25.78125 6.585938 24.605469 5.234375 23.84375 4.578125 C 22.84375 3.710938 22.453125 3.429688 21.664062 3.007812 L 20.609375 2.441406 C 20.429688 2.347656 20.253906 2.269531 20.214844 2.265625 C 20.097656 2.257812 20.492188 2.867188 21.113281 3.644531 C 21.433594 4.046875 21.964844 4.894531 22.296875 5.535156 C 22.628906 6.171875 22.964844 6.710938 23.050781 6.734375 C 23.347656 6.816406 25.652344 6.796875 25.703125 6.710938 Z M 25.703125 6.710938 " fill-opacity="1" fill-rule="nonzero"/></g></svg>